# xmcd
#
# Track frame offsets:
#	183
#	15813
#	33210
#	62985
#	80188
#	99688
#	116923
#	133613
#	163033
#	177135
#	201300
#	215035
#
# Disc length: 3152 seconds
#
# Revision: 2
# Processed by: cddbd v1.5.2PL0 Copyright (c) Steve Scherf et al.
# Submitted via: dBpowerAMP V4.0
#
DISCID=aa0c4e0c
DTITLE=Grant and Forsyth - Country Love Songs vol.2
DYEAR=1900
DGENRE=country
TTITLE0=He's out of my life
TTITLE1=Don't stay (for the sake of the children)
TTITLE2=Medley (Your cheating heart, Send me the pillow you dream on, Witchita Lineman, He''ll have to go)
TTITLE3=Stay
TTITLE4=It ain't easy
TTITLE5=I am  i said
TTITLE6=Without you
TTITLE7=Medley (Rose garden, Rhinstone cowboy, It hurts to be in love, When will i beloved)
TTITLE8=Talking in your sleep
TTITLE9=(When you were) sweet Sixteen
TTITLE10=Turning over New Leaves
TTITLE11=Soul on fire
EXTD=
EXTT0=
EXTT1=
EXTT2=
EXTT3=
EXTT4=
EXTT5=
EXTT6=
EXTT7=
EXTT8=
EXTT9=
EXTT10=
EXTT11=
PLAYORDER=
